<svg xmlns="http://www.w3.org/2000/svg" width="140" height="140" viewBox="0 0 140 140"><defs><style>.a{fill:#cc0100;}</style></defs><path class="a" d="M140,70c0,3.569-6.152,6.614-6.689,10.032-.551,3.509,4.354,8.3,3.28,11.6C135.5,95,128.706,95.993,127.12,99.1c-1.6,3.14,1.574,9.219-.486,12.049s-8.834,1.69-11.315,4.171-1.328,9.246-4.171,11.315-8.908-1.118-12.049.486c-3.108,1.586-4.1,8.379-7.464,9.471-3.306,1.073-8.1-3.832-11.6-3.28C76.614,133.848,73.569,140,70,140s-6.614-6.152-10.032-6.689c-3.509-.551-8.3,4.354-11.6,3.28C45,135.5,44.007,128.706,40.9,127.12c-3.14-1.6-9.219,1.574-12.049-.486s-1.69-8.834-4.17-11.315-9.246-1.328-11.315-4.171,1.118-8.908-.486-12.049C11.293,95.993,4.5,95,3.409,91.636c-1.073-3.306,3.832-8.1,3.28-11.6C6.152,76.614,0,73.569,0,70s6.152-6.614,6.689-10.032c.551-3.509-4.354-8.3-3.28-11.6C4.5,45,11.294,44.007,12.88,40.9c1.6-3.14-1.574-9.219.486-12.049s8.834-1.69,11.315-4.171,1.327-9.246,4.171-11.315S37.76,14.483,40.9,12.88C44.007,11.294,45,4.5,48.364,3.409c3.306-1.073,8.1,3.832,11.6,3.28C63.386,6.152,66.431,0,70,0s6.614,6.152,10.032,6.689c3.509.551,8.3-4.354,11.6-3.28C95,4.5,95.992,11.294,99.1,12.88c3.14,1.6,9.219-1.574,12.049.486s1.69,8.834,4.171,11.315,9.246,1.328,11.315,4.171-1.118,8.908.486,12.049c1.586,3.108,8.379,4.1,9.471,7.464,1.073,3.306-3.832,8.1-3.28,11.6C133.848,63.386,140,66.431,140,70"/></svg>