<?xml version="1.0" encoding="UTF-8"?>
<svg version="1.1" xmlns="http://www.w3.org/2000/svg" width="185" height="189">
<path d="M0 0 C0.8886525 -0.01283524 1.77730499 -0.02567047 2.69288635 -0.03889465 C3.62430954 -0.04628159 4.55573273 -0.05366852 5.51538086 -0.0612793 C6.50791367 -0.06935104 7.50044647 -0.07742279 8.52305603 -0.08573914 C10.61479999 -0.09949514 12.7065656 -0.11025474 14.79833984 -0.11816406 C16.90713223 -0.12965215 19.01589627 -0.15005326 21.12451172 -0.1796875 C55.56107629 -0.66212822 55.56107629 -0.66212822 68.46069336 11.6496582 C74.17883374 17.93793575 76.30775039 25.74668583 76.12084961 34.0793457 C75.31410282 42.41055776 70.21668458 48.03473956 64.91772461 54.17700195 C65.66795898 54.43481445 66.41819336 54.69262695 67.19116211 54.95825195 C72.30395527 57.24362655 75.58629939 61.51868017 78.06616211 66.4699707 C81.18849633 75.24974537 80.51053542 84.17745186 76.79443359 92.67285156 C72.87554719 100.7932731 67.59202167 107.4162527 59.16772461 111.05200195 C47.81425684 114.32467852 36.43503213 114.46709686 24.72607422 114.3828125 C22.119935 114.36460473 19.5141552 114.3623034 16.90795898 114.36254883 C15.19636748 114.35762882 13.48477831 114.35179841 11.77319336 114.3449707 C11.02160446 114.34385788 10.27001556 114.34274506 9.49565125 114.34159851 C1.59062192 114.2750346 -6.15028665 113.67275125 -14.08227539 113.17700195 C-14.08227539 76.21700195 -14.08227539 39.25700195 -14.08227539 1.17700195 C-3.94514556 0.05065419 -3.94514556 0.05065419 0 0 Z M7.91772461 19.17700195 C6.66523959 21.68197199 6.80398054 23.38553469 6.82006836 26.18481445 C6.82329102 27.17094727 6.82651367 28.15708008 6.82983398 29.1730957 C6.83821289 30.20563477 6.8465918 31.23817383 6.85522461 32.30200195 C6.85973633 33.34227539 6.86424805 34.38254883 6.86889648 35.4543457 C6.88070509 38.02862157 6.89717386 40.60278342 6.91772461 43.17700195 C12.62438321 45.12806226 17.66176538 45.45768808 23.66772461 45.36450195 C24.55153809 45.35515625 25.43535156 45.34581055 26.34594727 45.33618164 C28.87058639 45.30000272 31.39372801 45.24375488 33.91772461 45.17700195 C35.08561523 45.14735352 36.25350586 45.11770508 37.45678711 45.0871582 C42.99010671 44.77467046 46.64877609 44.01905562 50.91772461 40.17700195 C53.85726336 36.64955545 54.4637948 33.57911746 54.26147461 29.1027832 C53.68280965 25.8609443 52.33831372 24.34932551 49.91772461 22.17700195 C43.77560089 19.05010261 38.45680297 18.05128205 31.62866211 18.04418945 C30.44014648 18.04290039 29.25163086 18.04161133 28.02709961 18.0402832 C26.17858398 18.04608398 26.17858398 18.04608398 24.29272461 18.05200195 C23.05264648 18.04813477 21.81256836 18.04426758 20.53491211 18.0402832 C19.34897461 18.04157227 18.16303711 18.04286133 16.94116211 18.04418945 C15.85754395 18.04531738 14.77392578 18.04644531 13.6574707 18.04760742 C10.8249399 18.05730768 10.8249399 18.05730768 7.91772461 19.17700195 Z M7.91772461 63.17700195 C6.45673616 66.09897885 6.8063756 68.67593671 6.82006836 71.93481445 C6.82148331 72.59786591 6.82289825 73.26091736 6.82435608 73.94406128 C6.82995707 76.06342058 6.8425096 78.18267454 6.85522461 80.30200195 C6.86023949 81.73819834 6.86480242 83.17439639 6.86889648 84.6105957 C6.87992679 88.1327654 6.89719202 91.6548734 6.91772461 95.17700195 C13.26768298 96.42092023 19.36374806 96.16286109 25.80322266 95.93505859 C27.84577376 95.86482691 29.88834271 95.81041133 31.93139648 95.75708008 C33.2352832 95.71389648 34.53916992 95.67071289 35.88256836 95.6262207 C37.65555298 95.56954224 37.65555298 95.56954224 39.46435547 95.51171875 C44.29434311 95.04357361 48.52694044 94.45188744 52.16772461 91.11450195 C54.89182912 86.54189795 57.29908045 82.19405769 56.60913086 76.7355957 C55.17996728 71.8344528 53.50398491 68.71408212 48.91772461 66.17700195 C40.39897377 62.56691824 31.84577629 62.82420163 22.79272461 62.98950195 C21.34482195 63.00458427 19.89690399 63.01826637 18.44897461 63.03051758 C14.93823467 63.06322347 11.42808062 63.11480684 7.91772461 63.17700195 Z " fill="#E3154D" transform="translate(64.082275390625,38.822998046875)"/>
<path d="M0 0 C0.84012131 -0.00029205 1.68024261 -0.00058411 2.54582214 -0.00088501 C5.28903985 0.00049477 8.03197694 0.01599144 10.77514648 0.03173828 C12.69042309 0.03547323 14.60570162 0.03831792 16.52098083 0.04031372 C21.53672659 0.04791223 26.55235462 0.06752788 31.5680542 0.08972168 C36.69631356 0.11026197 41.82459213 0.11933287 46.95288086 0.12939453 C56.99655208 0.15077764 67.04013633 0.18486744 77.08374023 0.22705078 C77.28032831 1.64248493 77.46561569 3.05949109 77.64624023 4.47705078 C77.80286133 5.66041016 77.80286133 5.66041016 77.96264648 6.86767578 C78.08401373 9.23237952 77.7800728 10.97815448 77.08374023 13.22705078 C76.03661865 13.23291702 74.98949707 13.23878326 73.91064453 13.24482727 C64.02373815 13.30213693 54.13704998 13.37494159 44.25036621 13.46276569 C39.167985 13.50741893 34.08568302 13.54668621 29.00317383 13.57348633 C24.09469364 13.59956959 19.18651915 13.64000759 14.27822876 13.69023705 C12.40926935 13.7068718 10.5402571 13.71840714 8.67123413 13.72466469 C6.04539231 13.73434277 3.42032665 13.76244575 0.79467773 13.79467773 C-0.35439812 13.7925251 -0.35439812 13.7925251 -1.52668762 13.79032898 C-8.84278488 13.91664439 -15.67278776 15.83376529 -20.91625977 21.22705078 C-24.26391971 27.32082589 -24.34981641 32.68147396 -24.3203125 39.54321289 C-24.32717575 40.66279892 -24.334039 41.78238495 -24.34111023 42.93589783 C-24.35936571 46.62552685 -24.35554236 50.31473017 -24.34985352 54.00439453 C-24.35441582 56.57597491 -24.35972154 59.14755408 -24.36573792 61.71913147 C-24.37466655 67.10488428 -24.37248334 72.49047451 -24.36230469 77.8762207 C-24.3508261 84.0867216 -24.36490023 90.29679052 -24.39170116 96.50723451 C-24.41658967 102.50070691 -24.41902604 108.49395819 -24.4125843 114.4874897 C-24.41243113 117.02914715 -24.41847264 119.57081292 -24.43087578 122.11244011 C-24.44578762 125.66911639 -24.43510587 129.22484702 -24.41796875 132.78149414 C-24.42763672 133.82642029 -24.43730469 134.87134644 -24.44726562 135.94793701 C-24.38118058 142.51282514 -23.19827702 146.54265907 -19.91625977 152.22705078 C-19.91625977 152.88705078 -19.91625977 153.54705078 -19.91625977 154.22705078 C-15.22408671 156.6600294 -11.24318919 158.47349192 -5.88908386 158.49447632 C-4.90090164 158.50300629 -3.91271942 158.51153625 -2.89459229 158.52032471 C-1.82174988 158.51941833 -0.74890747 158.51851196 0.35644531 158.51757812 C1.49524643 158.52429535 2.63404755 158.53101257 3.80735779 158.53793335 C7.57270672 158.55693379 11.33787759 158.56083867 15.10327148 158.56298828 C17.72255018 158.56941495 20.34182816 158.57614322 22.96110535 158.5831604 C28.45292316 158.59594114 33.94469276 158.59892638 39.43652344 158.59765625 C45.77079425 158.59645567 52.10472388 158.61754394 58.4389084 158.64914358 C64.54661692 158.67852023 70.65416262 158.68563037 76.7619381 158.6844368 C79.35384196 158.68679476 81.94574843 158.69562921 84.53760719 158.71110153 C88.16630845 158.73073427 91.79413572 158.72493295 95.42285156 158.71289062 C96.48962128 158.72412964 97.55639099 158.73536865 98.65548706 158.74694824 C104.90422888 158.69435105 109.94098409 157.99752658 115.08374023 154.22705078 C119.67596378 148.45733402 120.23234287 143.90189905 120.24145508 136.74829102 C120.2465358 135.88299774 120.25161652 135.01770447 120.2568512 134.12619019 C120.26755265 132.24698843 120.27617371 130.36777394 120.28297043 128.488554 C120.29474825 125.51785966 120.31419607 122.54731142 120.33609009 119.57667542 C120.39775947 111.13051169 120.45184784 102.6843643 120.48510742 94.23803711 C120.50599422 89.07328039 120.54124396 83.90879214 120.58586502 78.74418831 C120.6000681 76.77257498 120.60875711 74.80091419 120.6119194 72.82925224 C120.61680094 70.07801863 120.6398849 67.32750461 120.66723633 64.57641602 C120.66272713 63.34594795 120.66272713 63.34594795 120.65812683 62.09062195 C120.69174194 59.82615662 120.69174194 59.82615662 121.08374023 56.22705078 C124.77091461 53.76893453 126.72719728 53.91586914 131.08374023 54.22705078 C132.07374023 54.88705078 133.06374023 55.54705078 134.08374023 56.22705078 C134.3912156 59.1044209 134.50345554 61.76801203 134.48779297 64.64892578 C134.49465622 65.52072983 134.50151947 66.39253387 134.5085907 67.29075623 C134.52695818 70.18635149 134.52300402 73.08140948 134.51733398 75.97705078 C134.52189406 77.99048031 134.52719911 80.00390829 134.53321838 82.01733398 C134.54217126 86.24762266 134.53970523 90.47772283 134.52978516 94.70800781 C134.51834724 100.11044738 134.5384161 105.51222829 134.56770229 110.9145813 C134.58612646 115.07896013 134.58575853 119.24318337 134.58006477 123.40759277 C134.57991203 125.3977551 134.58591772 127.38792829 134.59835625 129.37805176 C134.66952297 142.64352196 134.52734746 153.35346746 124.93920898 163.47314453 C116.43322225 171.51354041 108.68154549 172.52699938 97.24853516 172.51757812 C96.07364029 172.52429535 94.89874542 172.53101257 93.68824768 172.53793335 C89.81352481 172.55689378 85.93897533 172.56083658 82.06420898 172.56298828 C80.72373186 172.56583737 79.38325543 172.56902966 78.04277992 172.57255936 C71.0221549 172.59103406 64.00160556 172.59923323 56.98095703 172.59765625 C50.45923609 172.59645569 43.93784654 172.61754749 37.4162094 172.64914358 C31.79810839 172.67538238 26.18011511 172.68602037 20.56195337 172.68474543 C17.21478158 172.68423799 13.86813832 172.69166698 10.52098656 172.71110153 C6.78275707 172.73077496 3.04537304 172.72491701 -0.69287109 172.71289062 C-1.78671112 172.72412964 -2.88055115 172.73536865 -4.00753784 172.74694824 C-13.94935954 172.66598807 -21.8886848 170.02584893 -29.16235352 163.14892578 C-37.01157074 154.54800179 -38.2169705 145.93892792 -38.19091797 134.66723633 C-38.1960289 133.52160217 -38.20113983 132.37596802 -38.20640564 131.19561768 C-38.22027566 127.41828142 -38.2193466 123.64112819 -38.21704102 119.86376953 C-38.22092969 117.22972038 -38.22526471 114.59567186 -38.23002625 111.96162415 C-38.2382265 106.4430683 -38.23734016 100.92456368 -38.23193359 95.40600586 C-38.22589979 89.04793156 -38.23819444 82.69007889 -38.25950366 76.3320424 C-38.27931666 70.1923078 -38.28228465 64.05267602 -38.27876854 57.91291237 C-38.27928063 55.31150607 -38.28449726 52.71009614 -38.29458046 50.10870934 C-38.30697303 46.46398433 -38.30013538 42.81976626 -38.28857422 39.17504883 C-38.30003983 37.57636711 -38.30003983 37.57636711 -38.31173706 35.94538879 C-38.24319067 26.12499887 -36.40141166 17.88636304 -29.99829102 10.27001953 C-21.51862881 1.94945043 -11.49247162 -0.10706992 0 0 Z " fill="#E3154D" transform="translate(43.916259765625,9.77294921875)"/>
<path d="M0 0 C2.97 0 5.94 0 9 0 C9 3.3 9 6.6 9 10 C9.78503906 9.93039063 10.57007813 9.86078125 11.37890625 9.7890625 C21.03197317 9.29160384 21.03197317 9.29160384 25.1875 12.8125 C29.25242241 16.81808048 29.20851994 20.77966607 29.3125 26.3125 C29.34988281 27.60800781 29.38726562 28.90351562 29.42578125 30.23828125 C28.92476188 34.66471841 27.91190851 36.65347828 25 40 C20.15760849 43.33089358 15.90865717 43.40529762 10.25 43.25 C9.48300781 43.24484375 8.71601563 43.2396875 7.92578125 43.234375 C2.31086121 43.15543061 2.31086121 43.15543061 0 42 C0 28.14 0 14.28 0 0 Z M9 19 C9 23.62 9 28.24 9 33 C13.759829 34.03916501 13.759829 34.03916501 18.4375 33.125 C20.61410808 30.16481301 20.43958828 27.75297025 20.43359375 24.15625 C19.89583419 21.48198623 19.21577623 20.57200341 17 19 C14.94636394 18.6393369 14.94636394 18.6393369 12.8125 18.8125 C11.554375 18.874375 10.29625 18.93625 9 19 Z " fill="#E3154D" transform="translate(143,8)"/>
</svg>
